# xmcd
#
# Track frame offsets:
#	182
#	14272
#	27017
#	40575
#	52790
#	67765
#	82397
#	95815
#	109945
#	120975
#	134617
#	146767
#	160735
#	175822
#	188440
#	203530
#
# Disc length: 2859 seconds
#
# Revision: 1
# Processed by: cddbd v1.4PL0 Copyright (c) Steve Scherf et al.
# Submitted via: EasyCDDAExtractor 5.1.0
#
DISCID=cb0b2910
DTITLE=Tino Rossi - Chante La Corse
DYEAR=1900
DGENRE=Country
TTITLE0=O Course, Ile Damour
TTITLE1=Reginella
TTITLE2=Corsica Bella
TTITLE3=Chanson Pour Ma Brune
TTITLE4=Ajecciu Bellu
TTITLE5=Maria
TTITLE6=Berceuse
TTITLE7=Pescadore
TTITLE8=Rustaglia
TTITLE9=Ma Ritournelle
TTITLE10=Vienim Vieni
TTITLE11=Loin Des Guitares
TTITLE12=Dajaccio A Bonifacio
TTITLE13=Tchi Tchi
TTITLE14=Rosita
TTITLE15=Lajaccienne
EXTD=
EXTT0=
EXTT1=
EXTT2=
EXTT3=
EXTT4=
EXTT5=
EXTT6=
EXTT7=
EXTT8=
EXTT9=
EXTT10=
EXTT11=
EXTT12=
EXTT13=
EXTT14=
EXTT15=
PLAYORDER=
